PathFileType	4	(X/Y/Z)	/Users/itak/Documents/Research/Walk-IL/dataset/trc/00249_00009.trc
DataRate	CameraRate	NumFrames	NumMarkers	Units	OrigDataRate	OrigDataStartFrame	OrigNumFrames
100.000000	100.000000	4	55	mm	100.000000	184	493
Frame#	Time	RPSI			LPSI			L3			STRN			T10			C7			CLAV			RBAK			LBAK			LSHO			LUPA			LAEL			LAOL			LWTS			LWPS			LFRA			LIFD			LHPS			LHTS			RSHO			RUPA			RAEL			RAOL			RWTS			RWPS			RFRA			RIFD			RHTS			RHPS			RBHD			LFHD			RFHD			LBHD			LHIP			RHIP			RASI			LASI			LKNE			LTHI			LANK			LTIP			LTOE			LMT1			LMT5			LHEE			RKNE			RTHI			RANK			RTIP			RTOE			RMT1			RMT5			RHEE			*53			*54			
		X1	Y1	Z1	X2	Y2	Z2	X3	Y3	Z3	X4	Y4	Z4	X5	Y5	Z5	X6	Y6	Z6	X7	Y7	Z7	X8	Y8	Z8	X9	Y9	Z9	X10	Y10	Z10	X11	Y11	Z11	X12	Y12	Z12	X13	Y13	Z13	X14	Y14	Z14	X15	Y15	Z15	X16	Y16	Z16	X17	Y17	Z17	X18	Y18	Z18	X19	Y19	Z19	X20	Y20	Z20	X21	Y21	Z21	X22	Y22	Z22	X23	Y23	Z23	X24	Y24	Z24	X25	Y25	Z25	X26	Y26	Z26	X27	Y27	Z27	X28	Y28	Z28	X29	Y29	Z29	X30	Y30	Z30	X31	Y31	Z31	X32	Y32	Z32	X33	Y33	Z33	X34	Y34	Z34	X35	Y35	Z35	X36	Y36	Z36	X37	Y37	Z37	X38	Y38	Z38	X39	Y39	Z39	X40	Y40	Z40	X41	Y41	Z41	X42	Y42	Z42	X43	Y43	Z43	X44	Y44	Z44	X45	Y45	Z45	X46	Y46	Z46	X47	Y47	Z47	X48	Y48	Z48	X49	Y49	Z49	X50	Y50	Z50	X51	Y51	Z51	X52	Y52	Z52	X53	Y53	Z53	X54	Y54	Z54	X55	Y55	Z55	

185	1.84	-1031.296875	1034.965576171875	-288.2540588378906	-991.8406982421875	1048.327758789062	-400.7774353027344	-1008.446533203125	1133.242309570312	-361.5008239746094	-760.9434204101562	1317.107421875	-273.1976013183594	-1009.382080078125	1258.664184570312	-354.3204650878906	-945.180908203125	1517.546630859375	-329.0341491699219	-785.9177856445312	1435.95068359375	-275.5409545898438	-1037.326293945312	1379.191284179688	-282.3611755371094	-928.5514526367188	1484.422973632812	-442.4913940429688	-826.362548828125	1489.025390625	-462.3213806152344	-813.8447875976562	1378.294311523438	-552.9341430664062	-754.8785400390625	1177.126953125	-590.0880126953125	-835.2289428710938	1143.456420898438	-580.5607299804688	-638.1891479492188	983.1639404296875	-470.6800537109375	-617.5426025390625	959.7637939453125	-550.6194458007812	-699.8953247070312	1081.435302734375	-582.4948120117188	-572.0789794921875	803.1644287109375	-446.9612731933594	-577.3324584960938	883.0247192382812	-527.57080078125	-566.9319458007812	900.7802734375	-460.9877624511719	-940.6394653320312	1479.018310546875	-148.9938354492188	-981.046875	1414.8076171875	-91.36191558837891	-1023.221313476562	1133.20751953125	-70.10466003417969	-1018.443115234375	1129.335815429688	-165.3902435302734	-858.1278686523438	935.9957275390625	-58.77105331420898	-930.3519897460938	911.0203857421875	-21.42173385620117	-998.90283203125	1065.335205078125	-49.25669479370117	-815.3529052734375	747.7002563476562	-57.93192291259766	-811.6502685546875	820.93017578125	-27.37907600402832	-881.0073852539062	811.251953125	-2.391255855560303	-924.8616943359375	1666.64794921875	-286.9414978027344	-704.583740234375	1714.032348632812	-257.5090942382812	-758.72412109375	1710.166259765625	-173.3860778808594	-815.8490600585938	1677.801635742188	-373.9653015136719	-850.5590209960938	996.0059204101562	-505.3829650878906	-970.6705322265625	994.1614990234375	-157.5451812744141	-867.5802001953125	1039.568969726562	-162.8651580810547	-771.2800903320312	1035.494995117188	-425.6042175292969	-783.591796875	512.4334106445312	-439.7574462890625	-794.2551879882812	655.5836181640625	-471.9769287109375	-877.6359252929688	36.44708633422852	-462.0701293945312	-828.0971069335938	283.8284301757812	-457.6226501464844	-698.9723510742188	45.99599838256836	-328.1374816894531	-779.1897583007812	40.57684326171875	-314.0073852539062	-752.1915893554688	35.54960250854492	-430.0831298828125	-954.3843994140625	43.54570007324219	-437.3132629394531	-817.011962890625	521.3552856445312	-118.0802383422852	-880.1817016601562	784.8236694335938	-118.648551940918	-1117.448364257812	158.0833587646484	-250.9477386474609	-844.9121704101562	411.0093078613281	-143.7874908447266	-939.22265625	54.69806289672852	-212.6359405517578	-965.858642578125	76.74202728271484	-274.1217041015625	-1047.970947265625	95.56870269775391	-190.4922943115234	-1138.920532226562	192.2946929931641	-324.3008422851562	nan	nan	nan	nan	nan	nan	
186	1.85	-1025.298461914062	1035.699462890625	-287.3225402832031	-984.8308715820312	1049.003784179688	-399.4693298339844	-1001.554382324219	1133.82177734375	-360.6900024414062	-754.6953735351562	1317.291748046875	-269.4424438476562	-1002.503234863281	1259.33642578125	-353.74853515625	-937.8349609375	1518.039916992188	-327.5997314453125	-779.4193115234375	1436.175415039062	-271.971923828125	-1030.68212890625	1379.8662109375	-282.170654296875	-919.6837158203125	1484.9658203125	-440.8701477050781	-817.2345581054688	1489.683471679688	-458.9976806640625	-802.5128784179688	1379.514526367188	-549.6100463867188	-740.4218139648438	1179.390258789062	-586.5224609375	-820.6756591796875	1144.65087890625	-579.055419921875	-623.4729614257812	987.6517333984375	-464.068115234375	-600.7053833007812	964.270263671875	-543.3367919921875	-684.1934204101562	1084.595947265625	-577.5771484375	-555.718994140625	808.4523315429688	-438.12939453125	-560.1029663085938	888.1431884765625	-518.96044921875	-551.5679321289062	906.1022338867188	-452.2905883789062	-935.6589965820312	1479.634521484375	-147.5235443115234	-976.9935302734375	1415.504150390625	-90.49207305908203	-1019.997497558594	1133.986938476562	-69.99338531494141	-1013.988098144531	1130.158203125	-165.2530670166016	-854.6405639648438	937.1943359375	-56.48105621337891	-927.3018188476562	911.931396484375	-20.19400215148926	-995.9031372070312	1066.095092773438	-48.87971496582031	-811.0657958984375	749.1043090820312	-55.24504089355469	-808.2221069335938	822.3150634765625	-24.56505584716797	-877.7744140625	812.2637939453125	-0.6222688555717468	-917.7730102539062	1667.13232421875	-284.5812683105469	-697.661376953125	1713.951293945312	-253.2156829833984	-752.537109375	1710.031616210938	-169.5421600341797	-807.9315795898438	1678.256958007812	-370.6829528808594	-843.1806030273438	996.2274780273438	-503.2105407714844	-965.5238647460938	995.1812744140625	-156.1477355957031	-862.2890014648438	1039.977905273438	-160.7749633789062	-764.0797729492188	1035.564208984375	-422.9563598632812	-781.9418334960938	511.8914489746094	-439.642333984375	-790.6871948242188	655.3887939453125	-471.0071105957031	-877.6585083007812	36.46015930175781	-462.0351867675781	-827.5518798828125	283.6929931640625	-457.6340942382812	-699.0083618164062	46.04397964477539	-328.2134399414062	-779.2072143554688	40.56846237182617	-313.990478515625	-752.2180786132812	35.55491638183594	-430.0785217285156	-954.4630126953125	43.55842208862305	-437.3296813964844	-805.9821166992188	524.4269409179688	-112.8652191162109	-873.8255615234375	787.1450805664062	-115.37109375	-1091.286010742188	147.5009155273438	-245.1866302490234	-830.6174926757812	412.4796752929688	-137.9387359619141	-908.4711303710938	54.34810256958008	-203.064208984375	-935.3596801757812	73.77941131591797	-265.285400390625	-1019.411254882812	89.6561279296875	-182.9164428710938	-1113.586181640625	179.4553527832031	-319.3662414550781	nan	nan	nan	nan	nan	nan	
187	1.86	-1019.219604492188	1036.361450195312	-286.3722839355469	-977.7205200195312	1049.609985351562	-398.1170043945312	-994.53564453125	1134.318237304688	-359.7901611328125	-748.445068359375	1317.421142578125	-265.6410522460938	-995.4611206054688	1259.883422851562	-353.0536804199219	-930.4974975585938	1518.430419921875	-326.0558166503906	-772.93115234375	1436.338500976562	-268.3618469238281	-1024.020141601562	1380.425659179688	-281.8641662597656	-910.8780517578125	1485.396240234375	-439.1247863769531	-808.207763671875	1490.248413085938	-455.6155700683594	-791.377685546875	1380.6318359375	-546.1895141601562	-726.22265625	1181.563720703125	-582.7514038085938	-806.3128051757812	1145.76708984375	-577.230224609375	-609.03955078125	992.0308837890625	-457.3597717285156	-584.2510375976562	968.697021484375	-535.9424438476562	-668.8046875	1087.686889648438	-572.4852905273438	-539.6900634765625	813.6635131835938	-429.2480163574219	-543.281005859375	893.1930541992188	-510.2408447265625	-536.5509033203125	911.3381958007812	-443.5799560546875	-930.6602172851562	1480.14404296875	-145.9931030273438	-972.8734130859375	1416.092041015625	-89.55437469482422	-1016.719177246094	1134.673828125	-69.79286956787109	-1009.489196777344	1130.87744140625	-165.0074157714844	-851.277587890625	938.1782836914062	-54.10538482666016	-924.3914184570312	912.6784057617188	-18.88456726074219	-992.8931274414062	1066.754638671875	-48.41772842407227	-807.0325317382812	750.2513427734375	-52.46634674072266	-805.009521484375	823.4666748046875	-21.6572380065918	-874.755859375	813.06640625	1.221593141555786	-910.7376708984375	1667.52490234375	-282.1903381347656	-690.8221435546875	1713.836181640625	-248.8815155029297	-746.4309692382812	1709.860595703125	-165.6690826416016	-800.06689453125	1678.630004882812	-367.3568420410156	-835.6548461914062	996.3941040039062	-500.9233703613281	-960.3458251953125	996.0745239257812	-154.7254028320312	-856.9610595703125	1040.289184570312	-158.5928802490234	-756.7775268554688	1035.556884765625	-420.1483764648438	-780.4027709960938	511.3552856445312	-439.5586242675781	-787.1323852539062	655.1723022460938	-470.0356750488281	-877.6823120117188	36.46908187866211	-462.0035095214844	-827.1016845703125	283.57763671875	-457.6719665527344	-699.0543212890625	46.09870529174805	-328.296142578125	-779.220458984375	40.55860137939453	-313.9751586914062	-752.2484741210938	35.55845642089844	-430.0769653320312	-954.513916015625	43.5562744140625	-437.3388671875	-795.5557250976562	527.3887329101562	-107.6066131591797	-867.7349243164062	789.3549194335938	-112.0710754394531	-1064.394653320312	136.6936798095703	-239.0592803955078	-816.79345703125	413.8388977050781	-131.923095703125	-877.6273803710938	54.32117080688477	-192.6106567382812	-904.4639892578125	70.99341583251953	-255.6114044189453	-990.5418090820312	83.84552001953125	-174.7443695068359	-1087.228637695312	166.1972045898438	-314.14501953125	nan	nan	nan	nan	nan	nan	
188	1.87	-1013.057739257812	1036.945922851562	-285.4039611816406	-970.5062255859375	1050.137817382812	-396.7185363769531	-987.3976440429688	1134.723754882812	-358.7982788085938	-742.1771850585938	1317.4814453125	-261.7912902832031	-988.2455444335938	1260.301635742188	-352.2362670898438	-923.1586303710938	1518.71484375	-324.396484375	-766.4417724609375	1436.426879882812	-264.7056884765625	-1017.333374023438	1380.86572265625	-281.4349975585938	-902.1237182617188	1485.71630859375	-437.25146484375	-799.2688598632812	1490.711303710938	-452.1696472167969	-780.427490234375	1381.629638671875	-542.6696166992188	-712.2962036132812	1183.619506835938	-578.78125	-792.1397705078125	1146.779907226562	-575.0775146484375	-594.9175415039062	996.2655639648438	-450.5549621582031	-568.1940307617188	973.0098266601562	-528.4478149414062	-653.7503051757812	1090.673583984375	-567.2278442382812	-523.9603271484375	818.79345703125	-420.3125610351562	-526.8587036132812	898.1477661132812	-501.4332275390625	-521.8780517578125	916.4755859375	-434.8636474609375	-925.6311645507812	1480.532348632812	-144.392333984375	-968.6760864257812	1416.55712890625	-88.53891754150391	-1013.374084472656	1135.2509765625	-69.50128936767578	-1004.931701660156	1131.477172851562	-164.6473541259766	-848.0342407226562	938.9219970703125	-51.64506149291992	-921.6122436523438	913.2442016601562	-17.49013519287109	-989.8579711914062	1067.298950195312	-47.86367034912109	-803.2467041015625	751.12353515625	-49.56513595581055	-802.0027465820312	824.3660278320312	-18.63272857666016	-871.9506225585938	813.651123046875	3.158596754074097	-903.751220703125	1667.810668945312	-279.7623901367188	-684.0677490234375	1713.690551757812	-244.5154418945312	-740.3970336914062	1709.657958984375	-161.7725524902344	-792.276611328125	1678.907104492188	-363.9873962402344	-827.9619140625	996.490966796875	-498.50537109375	-955.1488647460938	996.8410034179688	-153.2780914306641	-851.6149291992188	1040.505737304688	-156.3131561279297	-749.368408203125	1035.465209960938	-417.1617736816406	-778.9628295898438	510.82275390625	-439.4840087890625	-783.564453125	654.927001953125	-469.0472106933594	-877.708251953125	36.4758415222168	-461.9734191894531	-826.7398681640625	283.4808959960938	-457.7333679199219	-699.1088256835938	46.15929412841797	-328.383056640625	-779.2301025390625	40.54745864868164	-313.9603576660156	-752.28173828125	35.56229019165039	-430.0783996582031	-954.5405883789062	43.54143905639648	-437.3392639160156	-785.7550048828125	530.20166015625	-102.3458023071289	-861.9033813476562	791.421875	-108.753791809082	-1036.82666015625	125.8613433837891	-232.5106811523438	-803.4551391601562	415.0854187011719	-125.7463226318359	-846.87939453125	54.66499710083008	-181.25732421875	-873.3429565429688	68.47519683837891	-245.0611267089844	-961.4873657226562	78.28034210205078	-165.9396209716797	-1059.872680664062	152.7427062988281	-308.5697937011719	nan	nan	nan	nan	nan	nan	
